<mxfile host="Electron" modified="2023-12-13T10:50:39.003Z" agent="Mozilla/5.0 (Windows NT 10.0; Win64; x64) AppleWebKit/537.36 (KHTML, like Gecko) draw.io/22.1.2 Chrome/114.0.5735.289 Electron/25.9.4 Safari/537.36" etag="gto8R6HUwhDADzaHkXPq" version="22.1.2" type="device">
  <diagram name="Page-1" id="UI4GVZUZ6_vJwbBaykrh">
    <mxGraphModel dx="2035" dy="1531" grid="1" gridSize="10" guides="1" tooltips="1" connect="1" arrows="1" fold="1" page="0" pageScale="1" pageWidth="1100" pageHeight="850" math="0" shadow="0">
      <root>
        <mxCell id="0" />
        <mxCell id="1" parent="0" />
        <mxCell id="zfnJmAJN-atiTWMpEj3Z-1" value="RENTAL_LOCATION" style="whiteSpace=wrap;html=1;align=center;" parent="1" vertex="1">
          <mxGeometry x="-140" y="-420" width="120" height="40" as="geometry" />
        </mxCell>
        <mxCell id="zfnJmAJN-atiTWMpEj3Z-2" value="PICK_UP_LOCATION" style="shape=rhombus;perimeter=rhombusPerimeter;whiteSpace=wrap;html=1;align=center;" parent="1" vertex="1">
          <mxGeometry x="-280" y="-320" width="160" height="80" as="geometry" />
        </mxCell>
        <mxCell id="zfnJmAJN-atiTWMpEj3Z-3" value="DROP_OFF_LOCATION" style="shape=rhombus;perimeter=rhombusPerimeter;whiteSpace=wrap;html=1;align=center;fontSize=11;" parent="1" vertex="1">
          <mxGeometry x="-40" y="-320" width="160" height="80" as="geometry" />
        </mxCell>
        <mxCell id="zfnJmAJN-atiTWMpEj3Z-4" value="Pick_up_date" style="ellipse;whiteSpace=wrap;html=1;align=center;" parent="1" vertex="1">
          <mxGeometry x="-420" y="-300" width="100" height="40" as="geometry" />
        </mxCell>
        <mxCell id="zfnJmAJN-atiTWMpEj3Z-5" value="Drop_off_date" style="ellipse;whiteSpace=wrap;html=1;align=center;" parent="1" vertex="1">
          <mxGeometry x="160.29" y="-300" width="100" height="40" as="geometry" />
        </mxCell>
        <mxCell id="zfnJmAJN-atiTWMpEj3Z-6" value="" style="endArrow=none;html=1;rounded=0;exitX=1;exitY=0.5;exitDx=0;exitDy=0;entryX=0;entryY=0.5;entryDx=0;entryDy=0;" parent="1" source="zfnJmAJN-atiTWMpEj3Z-3" target="zfnJmAJN-atiTWMpEj3Z-5" edge="1">
          <mxGeometry relative="1" as="geometry">
            <mxPoint x="10" y="-330" as="sourcePoint" />
            <mxPoint x="170" y="-330" as="targetPoint" />
          </mxGeometry>
        </mxCell>
        <mxCell id="zfnJmAJN-atiTWMpEj3Z-7" value="" style="endArrow=none;html=1;rounded=0;entryX=0;entryY=0.5;entryDx=0;entryDy=0;exitX=1;exitY=0.5;exitDx=0;exitDy=0;" parent="1" source="zfnJmAJN-atiTWMpEj3Z-4" target="zfnJmAJN-atiTWMpEj3Z-2" edge="1">
          <mxGeometry relative="1" as="geometry">
            <mxPoint x="-420" y="-460" as="sourcePoint" />
            <mxPoint x="-260" y="-460" as="targetPoint" />
          </mxGeometry>
        </mxCell>
        <mxCell id="zfnJmAJN-atiTWMpEj3Z-8" value="" style="endArrow=none;html=1;rounded=0;entryX=0.5;entryY=0;entryDx=0;entryDy=0;exitX=0;exitY=1;exitDx=0;exitDy=0;" parent="1" source="zfnJmAJN-atiTWMpEj3Z-1" target="zfnJmAJN-atiTWMpEj3Z-2" edge="1">
          <mxGeometry relative="1" as="geometry">
            <mxPoint x="-260" y="-400" as="sourcePoint" />
            <mxPoint x="-20" y="-380" as="targetPoint" />
          </mxGeometry>
        </mxCell>
        <mxCell id="zfnJmAJN-atiTWMpEj3Z-9" value="1" style="resizable=0;html=1;whiteSpace=wrap;align=right;verticalAlign=bottom;" parent="zfnJmAJN-atiTWMpEj3Z-8" connectable="0" vertex="1">
          <mxGeometry x="1" relative="1" as="geometry" />
        </mxCell>
        <mxCell id="zfnJmAJN-atiTWMpEj3Z-10" value="" style="endArrow=none;html=1;rounded=0;entryX=0.5;entryY=0;entryDx=0;entryDy=0;exitX=1;exitY=1;exitDx=0;exitDy=0;" parent="1" source="zfnJmAJN-atiTWMpEj3Z-1" target="zfnJmAJN-atiTWMpEj3Z-3" edge="1">
          <mxGeometry relative="1" as="geometry">
            <mxPoint x="-260" y="-360" as="sourcePoint" />
            <mxPoint x="-20" y="-380" as="targetPoint" />
          </mxGeometry>
        </mxCell>
        <mxCell id="zfnJmAJN-atiTWMpEj3Z-11" value="1" style="resizable=0;html=1;whiteSpace=wrap;align=right;verticalAlign=bottom;" parent="zfnJmAJN-atiTWMpEj3Z-10" connectable="0" vertex="1">
          <mxGeometry x="1" relative="1" as="geometry">
            <mxPoint x="10" as="offset" />
          </mxGeometry>
        </mxCell>
        <mxCell id="zfnJmAJN-atiTWMpEj3Z-12" value="" style="shape=link;html=1;rounded=0;entryX=0.5;entryY=1;entryDx=0;entryDy=0;exitX=0;exitY=0;exitDx=0;exitDy=0;" parent="1" source="zfnJmAJN-atiTWMpEj3Z-18" target="zfnJmAJN-atiTWMpEj3Z-2" edge="1">
          <mxGeometry relative="1" as="geometry">
            <mxPoint x="-40" y="-380" as="sourcePoint" />
            <mxPoint x="-100" y="-280" as="targetPoint" />
          </mxGeometry>
        </mxCell>
        <mxCell id="zfnJmAJN-atiTWMpEj3Z-13" value="N" style="resizable=0;html=1;whiteSpace=wrap;align=right;verticalAlign=bottom;" parent="zfnJmAJN-atiTWMpEj3Z-12" connectable="0" vertex="1">
          <mxGeometry x="1" relative="1" as="geometry">
            <mxPoint y="16" as="offset" />
          </mxGeometry>
        </mxCell>
        <mxCell id="zfnJmAJN-atiTWMpEj3Z-14" value="" style="shape=link;html=1;rounded=0;entryX=0.5;entryY=1;entryDx=0;entryDy=0;exitX=1;exitY=0;exitDx=0;exitDy=0;" parent="1" source="zfnJmAJN-atiTWMpEj3Z-18" target="zfnJmAJN-atiTWMpEj3Z-3" edge="1">
          <mxGeometry relative="1" as="geometry">
            <mxPoint x="-10" y="-140" as="sourcePoint" />
            <mxPoint x="-20" y="-380" as="targetPoint" />
          </mxGeometry>
        </mxCell>
        <mxCell id="zfnJmAJN-atiTWMpEj3Z-15" value="N" style="resizable=0;html=1;whiteSpace=wrap;align=right;verticalAlign=bottom;" parent="zfnJmAJN-atiTWMpEj3Z-14" connectable="0" vertex="1">
          <mxGeometry x="1" relative="1" as="geometry">
            <mxPoint x="10" y="20" as="offset" />
          </mxGeometry>
        </mxCell>
        <mxCell id="zfnJmAJN-atiTWMpEj3Z-16" value="Address" style="ellipse;whiteSpace=wrap;html=1;align=center;fontStyle=4;" parent="1" vertex="1">
          <mxGeometry x="-130" y="-480" width="100" height="40" as="geometry" />
        </mxCell>
        <mxCell id="zfnJmAJN-atiTWMpEj3Z-17" value="" style="endArrow=none;html=1;rounded=0;exitX=0.5;exitY=1;exitDx=0;exitDy=0;entryX=0.5;entryY=0;entryDx=0;entryDy=0;" parent="1" source="zfnJmAJN-atiTWMpEj3Z-16" target="zfnJmAJN-atiTWMpEj3Z-1" edge="1">
          <mxGeometry relative="1" as="geometry">
            <mxPoint x="-350" y="-420" as="sourcePoint" />
            <mxPoint x="-420" y="-410" as="targetPoint" />
          </mxGeometry>
        </mxCell>
        <mxCell id="zfnJmAJN-atiTWMpEj3Z-18" value="RENTAL_INSTANCE" style="whiteSpace=wrap;html=1;align=center;" parent="1" vertex="1">
          <mxGeometry x="-160" y="-120" width="160" height="40" as="geometry" />
        </mxCell>
        <mxCell id="zfnJmAJN-atiTWMpEj3Z-19" value="Rental_code" style="ellipse;whiteSpace=wrap;html=1;align=center;fontStyle=4;" parent="1" vertex="1">
          <mxGeometry x="40" y="-120" width="100" height="40" as="geometry" />
        </mxCell>
        <mxCell id="zfnJmAJN-atiTWMpEj3Z-20" value="" style="endArrow=none;html=1;rounded=0;entryX=0;entryY=0.5;entryDx=0;entryDy=0;exitX=1;exitY=0.5;exitDx=0;exitDy=0;" parent="1" source="zfnJmAJN-atiTWMpEj3Z-18" target="zfnJmAJN-atiTWMpEj3Z-19" edge="1">
          <mxGeometry relative="1" as="geometry">
            <mxPoint x="210" y="-430" as="sourcePoint" />
            <mxPoint x="370" y="-430" as="targetPoint" />
          </mxGeometry>
        </mxCell>
        <mxCell id="zfnJmAJN-atiTWMpEj3Z-21" value="CAR" style="whiteSpace=wrap;html=1;align=center;" parent="1" vertex="1">
          <mxGeometry y="440" width="120" height="40" as="geometry" />
        </mxCell>
        <mxCell id="zfnJmAJN-atiTWMpEj3Z-22" value="RENTAL" style="shape=rhombus;perimeter=rhombusPerimeter;whiteSpace=wrap;html=1;align=center;fontSize=12;" parent="1" vertex="1">
          <mxGeometry x="-140" y="50" width="120" height="60" as="geometry" />
        </mxCell>
        <mxCell id="zfnJmAJN-atiTWMpEj3Z-29" value="Price" style="ellipse;whiteSpace=wrap;html=1;align=center;" parent="1" vertex="1">
          <mxGeometry x="-270" y="240" width="100" height="40" as="geometry" />
        </mxCell>
        <mxCell id="zfnJmAJN-atiTWMpEj3Z-30" value="" style="endArrow=none;html=1;rounded=0;entryX=0;entryY=0.5;entryDx=0;entryDy=0;exitX=1;exitY=0.5;exitDx=0;exitDy=0;" parent="1" source="zfnJmAJN-atiTWMpEj3Z-29" target="XRYZQuRfgK1587XSu856-13" edge="1">
          <mxGeometry relative="1" as="geometry">
            <mxPoint x="-220" y="260" as="sourcePoint" />
            <mxPoint x="260" y="600" as="targetPoint" />
          </mxGeometry>
        </mxCell>
        <mxCell id="zfnJmAJN-atiTWMpEj3Z-31" value="Model" style="ellipse;whiteSpace=wrap;html=1;align=center;" parent="1" vertex="1">
          <mxGeometry x="-100" y="520" width="100" height="40" as="geometry" />
        </mxCell>
        <mxCell id="zfnJmAJN-atiTWMpEj3Z-32" value="" style="endArrow=none;html=1;rounded=0;exitX=1;exitY=0;exitDx=0;exitDy=0;entryX=0.25;entryY=1;entryDx=0;entryDy=0;" parent="1" source="zfnJmAJN-atiTWMpEj3Z-31" target="zfnJmAJN-atiTWMpEj3Z-21" edge="1">
          <mxGeometry relative="1" as="geometry">
            <mxPoint x="60" y="670" as="sourcePoint" />
            <mxPoint x="220" y="670" as="targetPoint" />
          </mxGeometry>
        </mxCell>
        <mxCell id="zfnJmAJN-atiTWMpEj3Z-33" value="Transmission_type" style="ellipse;whiteSpace=wrap;html=1;align=center;fontSize=11;" parent="1" vertex="1">
          <mxGeometry x="10" y="550" width="100" height="40" as="geometry" />
        </mxCell>
        <mxCell id="zfnJmAJN-atiTWMpEj3Z-34" value="" style="endArrow=none;html=1;rounded=0;exitX=0.5;exitY=0;exitDx=0;exitDy=0;entryX=0.5;entryY=1;entryDx=0;entryDy=0;" parent="1" source="zfnJmAJN-atiTWMpEj3Z-33" target="zfnJmAJN-atiTWMpEj3Z-21" edge="1">
          <mxGeometry relative="1" as="geometry">
            <mxPoint x="60" y="474.09000000000003" as="sourcePoint" />
            <mxPoint x="220" y="474.09000000000003" as="targetPoint" />
          </mxGeometry>
        </mxCell>
        <mxCell id="zfnJmAJN-atiTWMpEj3Z-35" value="Fuel_type" style="ellipse;whiteSpace=wrap;html=1;align=center;" parent="1" vertex="1">
          <mxGeometry x="160.29" y="440" width="100" height="40" as="geometry" />
        </mxCell>
        <mxCell id="zfnJmAJN-atiTWMpEj3Z-36" value="" style="endArrow=none;html=1;rounded=0;entryX=0;entryY=0.5;entryDx=0;entryDy=0;exitX=1;exitY=0.5;exitDx=0;exitDy=0;" parent="1" source="zfnJmAJN-atiTWMpEj3Z-21" target="zfnJmAJN-atiTWMpEj3Z-35" edge="1">
          <mxGeometry relative="1" as="geometry">
            <mxPoint x="170" y="450" as="sourcePoint" />
            <mxPoint x="220" y="490" as="targetPoint" />
          </mxGeometry>
        </mxCell>
        <mxCell id="zfnJmAJN-atiTWMpEj3Z-37" value="Seat_count" style="ellipse;whiteSpace=wrap;html=1;align=center;" parent="1" vertex="1">
          <mxGeometry x="120" y="520" width="100" height="40" as="geometry" />
        </mxCell>
        <mxCell id="zfnJmAJN-atiTWMpEj3Z-38" value="" style="endArrow=none;html=1;rounded=0;exitX=0;exitY=0;exitDx=0;exitDy=0;entryX=0.75;entryY=1;entryDx=0;entryDy=0;" parent="1" source="zfnJmAJN-atiTWMpEj3Z-37" target="zfnJmAJN-atiTWMpEj3Z-21" edge="1">
          <mxGeometry relative="1" as="geometry">
            <mxPoint x="80" y="400" as="sourcePoint" />
            <mxPoint x="240" y="400" as="targetPoint" />
          </mxGeometry>
        </mxCell>
        <mxCell id="zfnJmAJN-atiTWMpEj3Z-40" value="TERMINAL" style="whiteSpace=wrap;html=1;align=center;" parent="1" vertex="1">
          <mxGeometry x="1091.4199999999998" y="-420" width="100" height="40" as="geometry" />
        </mxCell>
        <mxCell id="zfnJmAJN-atiTWMpEj3Z-41" value="" style="endArrow=none;html=1;rounded=0;entryX=0;entryY=0.5;entryDx=0;entryDy=0;exitX=1;exitY=0.5;exitDx=0;exitDy=0;" parent="1" source="zfnJmAJN-atiTWMpEj3Z-86" target="zfnJmAJN-atiTWMpEj3Z-100" edge="1">
          <mxGeometry relative="1" as="geometry">
            <mxPoint x="1097" y="-132.5" as="sourcePoint" />
            <mxPoint x="900" y="-347.64" as="targetPoint" />
          </mxGeometry>
        </mxCell>
        <mxCell id="zfnJmAJN-atiTWMpEj3Z-42" value="1" style="resizable=0;html=1;whiteSpace=wrap;align=right;verticalAlign=bottom;" parent="zfnJmAJN-atiTWMpEj3Z-41" connectable="0" vertex="1">
          <mxGeometry x="1" relative="1" as="geometry">
            <mxPoint y="-10" as="offset" />
          </mxGeometry>
        </mxCell>
        <mxCell id="zfnJmAJN-atiTWMpEj3Z-43" value="ARRIVAL_TERMINAL" style="shape=rhombus;perimeter=rhombusPerimeter;whiteSpace=wrap;html=1;align=center;fontSize=11;" parent="1" vertex="1">
          <mxGeometry x="1160" y="-320" width="160" height="80" as="geometry" />
        </mxCell>
        <mxCell id="zfnJmAJN-atiTWMpEj3Z-44" value="DEPARTURE_TERMINAL" style="shape=rhombus;perimeter=rhombusPerimeter;whiteSpace=wrap;html=1;align=center;fontSize=11;" parent="1" vertex="1">
          <mxGeometry x="960" y="-320" width="160" height="80" as="geometry" />
        </mxCell>
        <mxCell id="zfnJmAJN-atiTWMpEj3Z-45" value="" style="endArrow=none;html=1;rounded=0;entryX=0.5;entryY=0;entryDx=0;entryDy=0;exitX=0.25;exitY=1;exitDx=0;exitDy=0;" parent="1" source="zfnJmAJN-atiTWMpEj3Z-40" target="zfnJmAJN-atiTWMpEj3Z-44" edge="1">
          <mxGeometry relative="1" as="geometry">
            <mxPoint x="895" y="-278.5" as="sourcePoint" />
            <mxPoint x="885" y="-108.5" as="targetPoint" />
          </mxGeometry>
        </mxCell>
        <mxCell id="zfnJmAJN-atiTWMpEj3Z-46" value="1" style="resizable=0;html=1;whiteSpace=wrap;align=right;verticalAlign=bottom;" parent="zfnJmAJN-atiTWMpEj3Z-45" connectable="0" vertex="1">
          <mxGeometry x="1" relative="1" as="geometry">
            <mxPoint x="-6" as="offset" />
          </mxGeometry>
        </mxCell>
        <mxCell id="zfnJmAJN-atiTWMpEj3Z-47" value="" style="endArrow=none;html=1;rounded=0;entryX=0.5;entryY=0;entryDx=0;entryDy=0;exitX=0.75;exitY=1;exitDx=0;exitDy=0;" parent="1" source="zfnJmAJN-atiTWMpEj3Z-40" target="zfnJmAJN-atiTWMpEj3Z-43" edge="1">
          <mxGeometry relative="1" as="geometry">
            <mxPoint x="1248.36" y="-303.5" as="sourcePoint" />
            <mxPoint x="1068.36" y="-213.5" as="targetPoint" />
          </mxGeometry>
        </mxCell>
        <mxCell id="zfnJmAJN-atiTWMpEj3Z-48" value="1" style="resizable=0;html=1;whiteSpace=wrap;align=right;verticalAlign=bottom;" parent="zfnJmAJN-atiTWMpEj3Z-47" connectable="0" vertex="1">
          <mxGeometry x="1" relative="1" as="geometry">
            <mxPoint x="18" as="offset" />
          </mxGeometry>
        </mxCell>
        <mxCell id="zfnJmAJN-atiTWMpEj3Z-49" value="Terminal_code" style="ellipse;whiteSpace=wrap;html=1;align=center;fontStyle=4;" parent="1" vertex="1">
          <mxGeometry x="1091.42" y="-490" width="100" height="40" as="geometry" />
        </mxCell>
        <mxCell id="zfnJmAJN-atiTWMpEj3Z-50" value="Location" style="ellipse;whiteSpace=wrap;html=1;align=center;" parent="1" vertex="1">
          <mxGeometry x="1212.83" y="-440" width="100" height="40" as="geometry" />
        </mxCell>
        <mxCell id="zfnJmAJN-atiTWMpEj3Z-51" value="Terminal_name" style="ellipse;whiteSpace=wrap;html=1;align=center;" parent="1" vertex="1">
          <mxGeometry x="969.9999999999999" y="-440" width="100" height="40" as="geometry" />
        </mxCell>
        <mxCell id="zfnJmAJN-atiTWMpEj3Z-52" value="" style="endArrow=none;html=1;rounded=0;exitX=0.5;exitY=1;exitDx=0;exitDy=0;entryX=0.5;entryY=0;entryDx=0;entryDy=0;" parent="1" source="zfnJmAJN-atiTWMpEj3Z-49" target="zfnJmAJN-atiTWMpEj3Z-40" edge="1">
          <mxGeometry relative="1" as="geometry">
            <mxPoint x="995.47" y="-390" as="sourcePoint" />
            <mxPoint x="1100" y="-450" as="targetPoint" />
          </mxGeometry>
        </mxCell>
        <mxCell id="zfnJmAJN-atiTWMpEj3Z-53" value="" style="endArrow=none;html=1;rounded=0;exitX=1;exitY=0.5;exitDx=0;exitDy=0;entryX=0;entryY=0.5;entryDx=0;entryDy=0;" parent="1" source="zfnJmAJN-atiTWMpEj3Z-51" target="zfnJmAJN-atiTWMpEj3Z-40" edge="1">
          <mxGeometry relative="1" as="geometry">
            <mxPoint x="1035.47" y="-450" as="sourcePoint" />
            <mxPoint x="1195.47" y="-450" as="targetPoint" />
          </mxGeometry>
        </mxCell>
        <mxCell id="zfnJmAJN-atiTWMpEj3Z-54" value="" style="endArrow=none;html=1;rounded=0;exitX=0;exitY=0.5;exitDx=0;exitDy=0;entryX=1;entryY=0.5;entryDx=0;entryDy=0;" parent="1" source="zfnJmAJN-atiTWMpEj3Z-50" target="zfnJmAJN-atiTWMpEj3Z-40" edge="1">
          <mxGeometry relative="1" as="geometry">
            <mxPoint x="1035.47" y="-450" as="sourcePoint" />
            <mxPoint x="1195.47" y="-450" as="targetPoint" />
          </mxGeometry>
        </mxCell>
        <mxCell id="zfnJmAJN-atiTWMpEj3Z-55" value="CUSTOMER" style="whiteSpace=wrap;html=1;align=center;" parent="1" vertex="1">
          <mxGeometry x="260.2900000000001" y="60" width="100" height="40" as="geometry" />
        </mxCell>
        <mxCell id="zfnJmAJN-atiTWMpEj3Z-56" value="Customer_id" style="ellipse;whiteSpace=wrap;html=1;align=center;fontStyle=4;" parent="1" vertex="1">
          <mxGeometry x="155" y="3.5" width="100" height="40" as="geometry" />
        </mxCell>
        <mxCell id="zfnJmAJN-atiTWMpEj3Z-57" value="Customer_name" style="ellipse;whiteSpace=wrap;html=1;align=center;" parent="1" vertex="1">
          <mxGeometry x="260.2900000000002" y="-20" width="100" height="40" as="geometry" />
        </mxCell>
        <mxCell id="zfnJmAJN-atiTWMpEj3Z-58" value="Data" style="ellipse;whiteSpace=wrap;html=1;align=center;" parent="1" vertex="1">
          <mxGeometry x="257.79000000000013" y="140" width="105" height="40" as="geometry" />
        </mxCell>
        <mxCell id="zfnJmAJN-atiTWMpEj3Z-59" value="" style="endArrow=none;html=1;rounded=0;entryX=0;entryY=0;entryDx=0;entryDy=0;exitX=0.5;exitY=1;exitDx=0;exitDy=0;" parent="1" source="zfnJmAJN-atiTWMpEj3Z-56" target="zfnJmAJN-atiTWMpEj3Z-55" edge="1">
          <mxGeometry relative="1" as="geometry">
            <mxPoint x="285.2900000000002" y="5" as="sourcePoint" />
            <mxPoint x="445.2900000000002" y="5" as="targetPoint" />
          </mxGeometry>
        </mxCell>
        <mxCell id="zfnJmAJN-atiTWMpEj3Z-60" value="" style="endArrow=none;html=1;rounded=0;exitX=0.5;exitY=1;exitDx=0;exitDy=0;entryX=0.5;entryY=0;entryDx=0;entryDy=0;" parent="1" source="zfnJmAJN-atiTWMpEj3Z-55" target="zfnJmAJN-atiTWMpEj3Z-58" edge="1">
          <mxGeometry relative="1" as="geometry">
            <mxPoint x="385.7615586721363" y="119.21282837249737" as="sourcePoint" />
            <mxPoint x="290" y="130" as="targetPoint" />
          </mxGeometry>
        </mxCell>
        <mxCell id="zfnJmAJN-atiTWMpEj3Z-61" value="" style="endArrow=none;html=1;rounded=0;exitX=0.5;exitY=0;exitDx=0;exitDy=0;entryX=0.5;entryY=1;entryDx=0;entryDy=0;" parent="1" source="zfnJmAJN-atiTWMpEj3Z-63" target="zfnJmAJN-atiTWMpEj3Z-58" edge="1">
          <mxGeometry relative="1" as="geometry">
            <mxPoint x="335.29000000000025" y="241.5" as="sourcePoint" />
            <mxPoint x="175.29000000000025" y="211.5" as="targetPoint" />
          </mxGeometry>
        </mxCell>
        <mxCell id="zfnJmAJN-atiTWMpEj3Z-62" value="" style="endArrow=none;html=1;rounded=0;entryX=1;entryY=0.5;entryDx=0;entryDy=0;exitX=0.5;exitY=0;exitDx=0;exitDy=0;" parent="1" source="zfnJmAJN-atiTWMpEj3Z-65" target="zfnJmAJN-atiTWMpEj3Z-58" edge="1">
          <mxGeometry relative="1" as="geometry">
            <mxPoint x="405.289999999987" y="221.5" as="sourcePoint" />
            <mxPoint x="295.29000000000025" y="141.5" as="targetPoint" />
          </mxGeometry>
        </mxCell>
        <mxCell id="zfnJmAJN-atiTWMpEj3Z-63" value="Preferences" style="ellipse;shape=doubleEllipse;margin=3;whiteSpace=wrap;html=1;align=center;" parent="1" vertex="1">
          <mxGeometry x="260.2900000000002" y="200" width="100" height="40" as="geometry" />
        </mxCell>
        <mxCell id="zfnJmAJN-atiTWMpEj3Z-64" value="Transportation_history" style="ellipse;shape=doubleEllipse;margin=3;whiteSpace=wrap;html=1;align=center;fontSize=11;" parent="1" vertex="1">
          <mxGeometry x="120.00000000000006" y="180" width="130" height="40" as="geometry" />
        </mxCell>
        <mxCell id="zfnJmAJN-atiTWMpEj3Z-65" value="Searches" style="ellipse;shape=doubleEllipse;margin=3;whiteSpace=wrap;html=1;align=center;" parent="1" vertex="1">
          <mxGeometry x="362.79000000000025" y="180" width="100" height="40" as="geometry" />
        </mxCell>
        <mxCell id="zfnJmAJN-atiTWMpEj3Z-66" value="" style="endArrow=none;html=1;rounded=0;entryX=0.5;entryY=1;entryDx=0;entryDy=0;" parent="1" source="zfnJmAJN-atiTWMpEj3Z-55" target="zfnJmAJN-atiTWMpEj3Z-57" edge="1">
          <mxGeometry relative="1" as="geometry">
            <mxPoint x="265.2900000000002" y="115" as="sourcePoint" />
            <mxPoint x="425.2900000000002" y="115" as="targetPoint" />
          </mxGeometry>
        </mxCell>
        <mxCell id="zfnJmAJN-atiTWMpEj3Z-67" value="Phone" style="ellipse;whiteSpace=wrap;html=1;align=center;" parent="1" vertex="1">
          <mxGeometry x="370.0000000000001" y="3.5" width="100" height="40" as="geometry" />
        </mxCell>
        <mxCell id="zfnJmAJN-atiTWMpEj3Z-68" value="" style="endArrow=none;html=1;rounded=0;entryX=0.5;entryY=1;entryDx=0;entryDy=0;exitX=1;exitY=0;exitDx=0;exitDy=0;" parent="1" source="zfnJmAJN-atiTWMpEj3Z-55" target="zfnJmAJN-atiTWMpEj3Z-67" edge="1">
          <mxGeometry relative="1" as="geometry">
            <mxPoint x="345.2900000000002" y="5" as="sourcePoint" />
            <mxPoint x="505.2900000000002" y="5" as="targetPoint" />
          </mxGeometry>
        </mxCell>
        <mxCell id="zfnJmAJN-atiTWMpEj3Z-69" value="SEAT" style="shape=ext;margin=3;double=1;whiteSpace=wrap;html=1;align=center;" parent="1" vertex="1">
          <mxGeometry x="630" y="200" width="120" height="40" as="geometry" />
        </mxCell>
        <mxCell id="zfnJmAJN-atiTWMpEj3Z-70" value="RESERVATION" style="shape=rhombus;double=1;perimeter=rhombusPerimeter;whiteSpace=wrap;html=1;align=center;fontSize=11;" parent="1" vertex="1">
          <mxGeometry x="630" y="50" width="120" height="60" as="geometry" />
        </mxCell>
        <mxCell id="zfnJmAJN-atiTWMpEj3Z-71" value="&lt;span style=&quot;border-bottom: 1px dotted&quot;&gt;Seat_number&lt;/span&gt;" style="ellipse;whiteSpace=wrap;html=1;align=center;" parent="1" vertex="1">
          <mxGeometry x="790" y="200" width="100" height="40" as="geometry" />
        </mxCell>
        <mxCell id="zfnJmAJN-atiTWMpEj3Z-72" value="" style="endArrow=none;html=1;rounded=0;entryX=0.5;entryY=0;entryDx=0;entryDy=0;exitX=0.5;exitY=1;exitDx=0;exitDy=0;" parent="1" source="zfnJmAJN-atiTWMpEj3Z-90" target="zfnJmAJN-atiTWMpEj3Z-70" edge="1">
          <mxGeometry relative="1" as="geometry">
            <mxPoint x="610" y="-63.5" as="sourcePoint" />
            <mxPoint x="820" y="16.5" as="targetPoint" />
          </mxGeometry>
        </mxCell>
        <mxCell id="zfnJmAJN-atiTWMpEj3Z-73" value="M" style="resizable=0;html=1;whiteSpace=wrap;align=right;verticalAlign=bottom;" parent="zfnJmAJN-atiTWMpEj3Z-72" connectable="0" vertex="1">
          <mxGeometry x="1" relative="1" as="geometry">
            <mxPoint x="-4" y="1" as="offset" />
          </mxGeometry>
        </mxCell>
        <mxCell id="zfnJmAJN-atiTWMpEj3Z-74" value="" style="endArrow=none;html=1;rounded=0;exitX=1;exitY=0.5;exitDx=0;exitDy=0;entryX=0;entryY=0.5;entryDx=0;entryDy=0;" parent="1" source="zfnJmAJN-atiTWMpEj3Z-69" target="zfnJmAJN-atiTWMpEj3Z-71" edge="1">
          <mxGeometry relative="1" as="geometry">
            <mxPoint x="615.29" y="126.5" as="sourcePoint" />
            <mxPoint x="775.2899999999998" y="126.5" as="targetPoint" />
          </mxGeometry>
        </mxCell>
        <mxCell id="zfnJmAJN-atiTWMpEj3Z-75" value="" style="shape=link;html=1;rounded=0;entryX=0.5;entryY=1;entryDx=0;entryDy=0;exitX=0.5;exitY=0;exitDx=0;exitDy=0;" parent="1" source="zfnJmAJN-atiTWMpEj3Z-69" target="zfnJmAJN-atiTWMpEj3Z-70" edge="1">
          <mxGeometry relative="1" as="geometry">
            <mxPoint x="355" y="156.5" as="sourcePoint" />
            <mxPoint x="515" y="156.5" as="targetPoint" />
          </mxGeometry>
        </mxCell>
        <mxCell id="zfnJmAJN-atiTWMpEj3Z-76" value="N" style="resizable=0;html=1;whiteSpace=wrap;align=right;verticalAlign=bottom;" parent="zfnJmAJN-atiTWMpEj3Z-75" connectable="0" vertex="1">
          <mxGeometry x="1" relative="1" as="geometry">
            <mxPoint x="-5" y="20" as="offset" />
          </mxGeometry>
        </mxCell>
        <mxCell id="zfnJmAJN-atiTWMpEj3Z-77" style="edgeStyle=orthogonalEdgeStyle;rounded=0;orthogonalLoop=1;jettySize=auto;html=1;exitX=0.5;exitY=1;exitDx=0;exitDy=0;" parent="1" edge="1">
          <mxGeometry relative="1" as="geometry">
            <mxPoint x="1123.63" y="-197.64" as="sourcePoint" />
            <mxPoint x="1123.63" y="-197.64" as="targetPoint" />
          </mxGeometry>
        </mxCell>
        <mxCell id="zfnJmAJN-atiTWMpEj3Z-78" value="" style="shape=link;html=1;rounded=0;entryX=0.5;entryY=1;entryDx=0;entryDy=0;exitX=0.25;exitY=0;exitDx=0;exitDy=0;" parent="1" source="zfnJmAJN-atiTWMpEj3Z-86" target="zfnJmAJN-atiTWMpEj3Z-44" edge="1">
          <mxGeometry relative="1" as="geometry">
            <mxPoint x="1125" y="-248.5" as="sourcePoint" />
            <mxPoint x="1205" y="-178.5" as="targetPoint" />
          </mxGeometry>
        </mxCell>
        <mxCell id="zfnJmAJN-atiTWMpEj3Z-79" value="N" style="resizable=0;html=1;whiteSpace=wrap;align=right;verticalAlign=bottom;" parent="zfnJmAJN-atiTWMpEj3Z-78" connectable="0" vertex="1">
          <mxGeometry x="1" relative="1" as="geometry">
            <mxPoint x="-5" y="25" as="offset" />
          </mxGeometry>
        </mxCell>
        <mxCell id="zfnJmAJN-atiTWMpEj3Z-80" value="VEHICLE" style="whiteSpace=wrap;html=1;align=center;" parent="1" vertex="1">
          <mxGeometry x="630" y="-400" width="120" height="40" as="geometry" />
        </mxCell>
        <mxCell id="zfnJmAJN-atiTWMpEj3Z-81" value="ASSIGNED" style="shape=rhombus;perimeter=rhombusPerimeter;whiteSpace=wrap;html=1;align=center;" parent="1" vertex="1">
          <mxGeometry x="630" y="-273.5" width="120" height="60" as="geometry" />
        </mxCell>
        <mxCell id="zfnJmAJN-atiTWMpEj3Z-82" value="" style="endArrow=none;html=1;rounded=0;exitX=0.5;exitY=1;exitDx=0;exitDy=0;entryX=0.5;entryY=0;entryDx=0;entryDy=0;" parent="1" source="zfnJmAJN-atiTWMpEj3Z-80" target="zfnJmAJN-atiTWMpEj3Z-81" edge="1">
          <mxGeometry relative="1" as="geometry">
            <mxPoint x="560" y="-353.5" as="sourcePoint" />
            <mxPoint x="625" y="-353.5" as="targetPoint" />
            <Array as="points" />
          </mxGeometry>
        </mxCell>
        <mxCell id="zfnJmAJN-atiTWMpEj3Z-83" value="1" style="resizable=0;html=1;whiteSpace=wrap;align=right;verticalAlign=bottom;" parent="zfnJmAJN-atiTWMpEj3Z-82" connectable="0" vertex="1">
          <mxGeometry x="1" relative="1" as="geometry">
            <mxPoint x="20" as="offset" />
          </mxGeometry>
        </mxCell>
        <mxCell id="zfnJmAJN-atiTWMpEj3Z-84" value="" style="shape=link;html=1;rounded=0;entryX=0.5;entryY=1;entryDx=0;entryDy=0;exitX=0.5;exitY=0;exitDx=0;exitDy=0;" parent="1" source="zfnJmAJN-atiTWMpEj3Z-90" target="zfnJmAJN-atiTWMpEj3Z-81" edge="1">
          <mxGeometry relative="1" as="geometry">
            <mxPoint x="585" y="-133.5" as="sourcePoint" />
            <mxPoint x="370" y="-103.5" as="targetPoint" />
          </mxGeometry>
        </mxCell>
        <mxCell id="zfnJmAJN-atiTWMpEj3Z-85" value="N" style="resizable=0;html=1;whiteSpace=wrap;align=right;verticalAlign=bottom;" parent="zfnJmAJN-atiTWMpEj3Z-84" connectable="0" vertex="1">
          <mxGeometry x="1" relative="1" as="geometry">
            <mxPoint x="20" y="20" as="offset" />
          </mxGeometry>
        </mxCell>
        <mxCell id="zfnJmAJN-atiTWMpEj3Z-86" value="SCHEDULED_TRIPS" style="whiteSpace=wrap;html=1;align=center;" parent="1" vertex="1">
          <mxGeometry x="1070" y="-120" width="142.83" height="40" as="geometry" />
        </mxCell>
        <mxCell id="zfnJmAJN-atiTWMpEj3Z-89" value="" style="endArrow=none;html=1;rounded=0;entryX=0;entryY=0.5;entryDx=0;entryDy=0;exitX=0.5;exitY=0;exitDx=0;exitDy=0;" parent="1" source="zfnJmAJN-atiTWMpEj3Z-64" target="zfnJmAJN-atiTWMpEj3Z-58" edge="1">
          <mxGeometry relative="1" as="geometry">
            <mxPoint x="-39.709999999999766" y="231.5" as="sourcePoint" />
            <mxPoint x="120.29000000000022" y="231.5" as="targetPoint" />
          </mxGeometry>
        </mxCell>
        <mxCell id="zfnJmAJN-atiTWMpEj3Z-90" value="TRIP_INSTANCE" style="shape=ext;margin=3;double=1;whiteSpace=wrap;html=1;align=center;" parent="1" vertex="1">
          <mxGeometry x="610" y="-120" width="160" height="40" as="geometry" />
        </mxCell>
        <mxCell id="zfnJmAJN-atiTWMpEj3Z-91" value="" style="shape=link;html=1;rounded=0;exitX=1;exitY=0.5;exitDx=0;exitDy=0;entryX=0;entryY=0.5;entryDx=0;entryDy=0;" parent="1" source="zfnJmAJN-atiTWMpEj3Z-90" target="zfnJmAJN-atiTWMpEj3Z-95" edge="1">
          <mxGeometry relative="1" as="geometry">
            <mxPoint x="653.75" y="-118.89999999999998" as="sourcePoint" />
            <mxPoint x="813.75" y="-118.89999999999998" as="targetPoint" />
          </mxGeometry>
        </mxCell>
        <mxCell id="zfnJmAJN-atiTWMpEj3Z-92" value="N" style="resizable=0;html=1;whiteSpace=wrap;align=right;verticalAlign=bottom;" parent="zfnJmAJN-atiTWMpEj3Z-91" connectable="0" vertex="1">
          <mxGeometry x="1" relative="1" as="geometry" />
        </mxCell>
        <mxCell id="zfnJmAJN-atiTWMpEj3Z-93" value="" style="endArrow=none;html=1;rounded=0;exitX=0;exitY=0.5;exitDx=0;exitDy=0;entryX=1;entryY=0.5;entryDx=0;entryDy=0;" parent="1" source="zfnJmAJN-atiTWMpEj3Z-86" target="zfnJmAJN-atiTWMpEj3Z-95" edge="1">
          <mxGeometry relative="1" as="geometry">
            <mxPoint x="730" y="-163.5" as="sourcePoint" />
            <mxPoint x="920" y="-133.5" as="targetPoint" />
          </mxGeometry>
        </mxCell>
        <mxCell id="zfnJmAJN-atiTWMpEj3Z-94" value="1" style="resizable=0;html=1;whiteSpace=wrap;align=right;verticalAlign=bottom;" parent="zfnJmAJN-atiTWMpEj3Z-93" connectable="0" vertex="1">
          <mxGeometry x="1" relative="1" as="geometry" />
        </mxCell>
        <mxCell id="zfnJmAJN-atiTWMpEj3Z-95" value="INSTANCE_OF" style="shape=rhombus;double=1;perimeter=rhombusPerimeter;whiteSpace=wrap;html=1;align=center;" parent="1" vertex="1">
          <mxGeometry x="860" y="-130" width="120" height="60" as="geometry" />
        </mxCell>
        <mxCell id="zfnJmAJN-atiTWMpEj3Z-96" value="Trip_code" style="ellipse;whiteSpace=wrap;html=1;align=center;fontStyle=4;" parent="1" vertex="1">
          <mxGeometry x="1078.92" y="-40" width="125" height="40" as="geometry" />
        </mxCell>
        <mxCell id="zfnJmAJN-atiTWMpEj3Z-97" value="" style="endArrow=none;html=1;rounded=0;exitX=0.75;exitY=0;exitDx=0;exitDy=0;entryX=0;entryY=1;entryDx=0;entryDy=0;" parent="1" source="zfnJmAJN-atiTWMpEj3Z-90" target="zfnJmAJN-atiTWMpEj3Z-115" edge="1">
          <mxGeometry relative="1" as="geometry">
            <mxPoint x="630" y="-183.5" as="sourcePoint" />
            <mxPoint x="743.5000000000002" y="-182.9000000000001" as="targetPoint" />
          </mxGeometry>
        </mxCell>
        <mxCell id="zfnJmAJN-atiTWMpEj3Z-98" value="" style="endArrow=none;html=1;rounded=0;exitX=0.5;exitY=1;exitDx=0;exitDy=0;entryX=0.5;entryY=0;entryDx=0;entryDy=0;" parent="1" source="zfnJmAJN-atiTWMpEj3Z-86" target="zfnJmAJN-atiTWMpEj3Z-96" edge="1">
          <mxGeometry relative="1" as="geometry">
            <mxPoint x="1150" y="-163.5" as="sourcePoint" />
            <mxPoint x="1190" y="-33.5" as="targetPoint" />
          </mxGeometry>
        </mxCell>
        <mxCell id="zfnJmAJN-atiTWMpEj3Z-99" value="FARE" style="shape=ext;margin=3;double=1;whiteSpace=wrap;html=1;align=center;" parent="1" vertex="1">
          <mxGeometry x="1470.0000000000002" y="-120" width="100" height="40" as="geometry" />
        </mxCell>
        <mxCell id="zfnJmAJN-atiTWMpEj3Z-100" value="HAS" style="shape=rhombus;double=1;perimeter=rhombusPerimeter;whiteSpace=wrap;html=1;align=center;" parent="1" vertex="1">
          <mxGeometry x="1280.0000000000002" y="-130" width="120" height="60" as="geometry" />
        </mxCell>
        <mxCell id="zfnJmAJN-atiTWMpEj3Z-101" value="" style="endArrow=none;html=1;rounded=0;exitX=0.25;exitY=1;exitDx=0;exitDy=0;entryX=0.5;entryY=0;entryDx=0;entryDy=0;" parent="1" source="zfnJmAJN-atiTWMpEj3Z-99" target="zfnJmAJN-atiTWMpEj3Z-107" edge="1">
          <mxGeometry relative="1" as="geometry">
            <mxPoint x="1543.3600000000001" y="-228.5" as="sourcePoint" />
            <mxPoint x="1603.3599999999838" y="-88.5" as="targetPoint" />
          </mxGeometry>
        </mxCell>
        <mxCell id="zfnJmAJN-atiTWMpEj3Z-102" style="edgeStyle=orthogonalEdgeStyle;rounded=0;orthogonalLoop=1;jettySize=auto;html=1;exitX=0.5;exitY=1;exitDx=0;exitDy=0;" parent="1" edge="1">
          <mxGeometry relative="1" as="geometry">
            <mxPoint x="1248.3600000000001" y="-33.5" as="sourcePoint" />
            <mxPoint x="1248.3600000000001" y="-33.5" as="targetPoint" />
          </mxGeometry>
        </mxCell>
        <mxCell id="zfnJmAJN-atiTWMpEj3Z-103" value="" style="shape=link;html=1;rounded=0;entryX=1;entryY=0.5;entryDx=0;entryDy=0;exitX=0;exitY=0.5;exitDx=0;exitDy=0;" parent="1" source="zfnJmAJN-atiTWMpEj3Z-99" target="zfnJmAJN-atiTWMpEj3Z-100" edge="1">
          <mxGeometry relative="1" as="geometry">
            <mxPoint x="1368.3600000000001" y="-223.5" as="sourcePoint" />
            <mxPoint x="1528.3600000000001" y="-223.5" as="targetPoint" />
          </mxGeometry>
        </mxCell>
        <mxCell id="zfnJmAJN-atiTWMpEj3Z-104" value="N" style="resizable=0;html=1;whiteSpace=wrap;align=right;verticalAlign=bottom;" parent="zfnJmAJN-atiTWMpEj3Z-103" connectable="0" vertex="1">
          <mxGeometry x="1" relative="1" as="geometry">
            <mxPoint y="-10" as="offset" />
          </mxGeometry>
        </mxCell>
        <mxCell id="zfnJmAJN-atiTWMpEj3Z-105" value="&lt;span style=&quot;border-bottom: 1px dotted; font-size: 11px;&quot;&gt;Fare_code&lt;/span&gt;" style="ellipse;whiteSpace=wrap;html=1;align=center;fontSize=11;" parent="1" vertex="1">
          <mxGeometry x="1530.0000000000002" y="-40" width="100" height="40" as="geometry" />
        </mxCell>
        <mxCell id="zfnJmAJN-atiTWMpEj3Z-106" value="" style="endArrow=none;html=1;rounded=0;exitX=0.75;exitY=1;exitDx=0;exitDy=0;entryX=0.5;entryY=0;entryDx=0;entryDy=0;" parent="1" source="zfnJmAJN-atiTWMpEj3Z-99" target="zfnJmAJN-atiTWMpEj3Z-105" edge="1">
          <mxGeometry relative="1" as="geometry">
            <mxPoint x="1484.0700000000002" y="-202.64" as="sourcePoint" />
            <mxPoint x="1618.7146609406732" y="-143.49786437626938" as="targetPoint" />
          </mxGeometry>
        </mxCell>
        <mxCell id="zfnJmAJN-atiTWMpEj3Z-107" value="Amount" style="ellipse;whiteSpace=wrap;html=1;align=center;" parent="1" vertex="1">
          <mxGeometry x="1410" y="-40" width="100" height="40" as="geometry" />
        </mxCell>
        <mxCell id="zfnJmAJN-atiTWMpEj3Z-108" value="" style="shape=link;html=1;rounded=0;entryX=0.5;entryY=1;entryDx=0;entryDy=0;exitX=0.75;exitY=0;exitDx=0;exitDy=0;" parent="1" source="zfnJmAJN-atiTWMpEj3Z-86" target="zfnJmAJN-atiTWMpEj3Z-43" edge="1">
          <mxGeometry relative="1" as="geometry">
            <mxPoint x="1250" y="-183.5" as="sourcePoint" />
            <mxPoint x="1410" y="-183.5" as="targetPoint" />
          </mxGeometry>
        </mxCell>
        <mxCell id="zfnJmAJN-atiTWMpEj3Z-109" value="N" style="resizable=0;html=1;whiteSpace=wrap;align=right;verticalAlign=bottom;" parent="zfnJmAJN-atiTWMpEj3Z-108" connectable="0" vertex="1">
          <mxGeometry x="1" relative="1" as="geometry">
            <mxPoint x="18" y="20" as="offset" />
          </mxGeometry>
        </mxCell>
        <mxCell id="zfnJmAJN-atiTWMpEj3Z-110" value="" style="endArrow=none;html=1;rounded=0;entryX=0.25;entryY=0;entryDx=0;entryDy=0;exitX=1;exitY=1;exitDx=0;exitDy=0;" parent="1" source="zfnJmAJN-atiTWMpEj3Z-116" target="zfnJmAJN-atiTWMpEj3Z-90" edge="1">
          <mxGeometry relative="1" as="geometry">
            <mxPoint x="590.0000000000002" y="-183.5" as="sourcePoint" />
            <mxPoint x="510" y="-153.5" as="targetPoint" />
          </mxGeometry>
        </mxCell>
        <mxCell id="zfnJmAJN-atiTWMpEj3Z-111" value="Arr_date" style="ellipse;whiteSpace=wrap;html=1;align=center;" parent="1" vertex="1">
          <mxGeometry x="1320" y="-360" width="100" height="40" as="geometry" />
        </mxCell>
        <mxCell id="zfnJmAJN-atiTWMpEj3Z-112" value="" style="endArrow=none;html=1;rounded=0;exitX=1;exitY=0;exitDx=0;exitDy=0;entryX=0;entryY=1;entryDx=0;entryDy=0;" parent="1" source="zfnJmAJN-atiTWMpEj3Z-43" target="zfnJmAJN-atiTWMpEj3Z-111" edge="1">
          <mxGeometry relative="1" as="geometry">
            <mxPoint x="1465.36" y="-378.5" as="sourcePoint" />
            <mxPoint x="1466.7199999999998" y="-363.5" as="targetPoint" />
          </mxGeometry>
        </mxCell>
        <mxCell id="zfnJmAJN-atiTWMpEj3Z-113" value="Dep_date" style="ellipse;whiteSpace=wrap;html=1;align=center;" parent="1" vertex="1">
          <mxGeometry x="860" y="-360" width="100" height="40" as="geometry" />
        </mxCell>
        <mxCell id="zfnJmAJN-atiTWMpEj3Z-114" value="" style="endArrow=none;html=1;rounded=0;exitX=0;exitY=0;exitDx=0;exitDy=0;entryX=1;entryY=1;entryDx=0;entryDy=0;" parent="1" source="zfnJmAJN-atiTWMpEj3Z-44" target="zfnJmAJN-atiTWMpEj3Z-113" edge="1">
          <mxGeometry relative="1" as="geometry">
            <mxPoint x="860" y="-316" as="sourcePoint" />
            <mxPoint x="816" y="-25" as="targetPoint" />
          </mxGeometry>
        </mxCell>
        <mxCell id="zfnJmAJN-atiTWMpEj3Z-115" value="Available_seats" style="ellipse;whiteSpace=wrap;html=1;align=center;" parent="1" vertex="1">
          <mxGeometry x="745" y="-213.5" width="100" height="40" as="geometry" />
        </mxCell>
        <mxCell id="zfnJmAJN-atiTWMpEj3Z-116" value="&lt;span style=&quot;border-bottom: 1px dotted&quot;&gt;Trip_date&lt;/span&gt;" style="ellipse;whiteSpace=wrap;html=1;align=center;" parent="1" vertex="1">
          <mxGeometry x="515" y="-213.5" width="100" height="40" as="geometry" />
        </mxCell>
        <mxCell id="zfnJmAJN-atiTWMpEj3Z-117" value="Seat_capacity" style="ellipse;whiteSpace=wrap;html=1;align=center;direction=west;" parent="1" vertex="1">
          <mxGeometry x="490" y="-450" width="100" height="40" as="geometry" />
        </mxCell>
        <mxCell id="zfnJmAJN-atiTWMpEj3Z-119" value="Aircraft_type" style="ellipse;whiteSpace=wrap;html=1;align=center;" parent="1" vertex="1">
          <mxGeometry x="362.79" y="-680" width="80" height="40" as="geometry" />
        </mxCell>
        <mxCell id="zfnJmAJN-atiTWMpEj3Z-120" value="u" style="ellipse;whiteSpace=wrap;html=1;aspect=fixed;" parent="1" vertex="1">
          <mxGeometry x="675" y="-500" width="30" height="30" as="geometry" />
        </mxCell>
        <mxCell id="zfnJmAJN-atiTWMpEj3Z-121" value="" style="endArrow=none;html=1;rounded=0;exitX=0.5;exitY=1;exitDx=0;exitDy=0;entryX=0.5;entryY=0;entryDx=0;entryDy=0;" parent="1" source="zfnJmAJN-atiTWMpEj3Z-120" target="zfnJmAJN-atiTWMpEj3Z-80" edge="1">
          <mxGeometry relative="1" as="geometry">
            <mxPoint x="790" y="-450" as="sourcePoint" />
            <mxPoint x="720" y="-450" as="targetPoint" />
          </mxGeometry>
        </mxCell>
        <mxCell id="zfnJmAJN-atiTWMpEj3Z-122" value="SHIP" style="whiteSpace=wrap;html=1;align=center;" parent="1" vertex="1">
          <mxGeometry x="560" y="-600" width="80" height="40" as="geometry" />
        </mxCell>
        <mxCell id="zfnJmAJN-atiTWMpEj3Z-123" value="BUS" style="whiteSpace=wrap;html=1;align=center;" parent="1" vertex="1">
          <mxGeometry x="920" y="-600" width="80" height="40" as="geometry" />
        </mxCell>
        <mxCell id="zfnJmAJN-atiTWMpEj3Z-124" value="AIRPLANE" style="whiteSpace=wrap;html=1;align=center;" parent="1" vertex="1">
          <mxGeometry x="400" y="-600" width="80" height="40" as="geometry" />
        </mxCell>
        <mxCell id="zfnJmAJN-atiTWMpEj3Z-125" value="" style="endArrow=none;html=1;rounded=0;exitX=0.5;exitY=1;exitDx=0;exitDy=0;entryX=0;entryY=0.5;entryDx=0;entryDy=0;" parent="1" source="zfnJmAJN-atiTWMpEj3Z-124" target="zfnJmAJN-atiTWMpEj3Z-120" edge="1">
          <mxGeometry relative="1" as="geometry">
            <mxPoint x="800" y="-470" as="sourcePoint" />
            <mxPoint x="650" y="-480" as="targetPoint" />
          </mxGeometry>
        </mxCell>
        <mxCell id="zfnJmAJN-atiTWMpEj3Z-126" value="" style="endArrow=none;html=1;rounded=0;exitX=0.5;exitY=1;exitDx=0;exitDy=0;entryX=0;entryY=0;entryDx=0;entryDy=0;" parent="1" source="zfnJmAJN-atiTWMpEj3Z-122" target="zfnJmAJN-atiTWMpEj3Z-120" edge="1">
          <mxGeometry relative="1" as="geometry">
            <mxPoint x="800" y="-470" as="sourcePoint" />
            <mxPoint x="640" y="-500" as="targetPoint" />
          </mxGeometry>
        </mxCell>
        <mxCell id="zfnJmAJN-atiTWMpEj3Z-127" value="" style="endArrow=none;html=1;rounded=0;exitX=0.5;exitY=1;exitDx=0;exitDy=0;entryX=1;entryY=0.5;entryDx=0;entryDy=0;" parent="1" source="zfnJmAJN-atiTWMpEj3Z-123" target="zfnJmAJN-atiTWMpEj3Z-120" edge="1">
          <mxGeometry relative="1" as="geometry">
            <mxPoint x="800" y="-470" as="sourcePoint" />
            <mxPoint x="740" y="-480" as="targetPoint" />
          </mxGeometry>
        </mxCell>
        <mxCell id="zfnJmAJN-atiTWMpEj3Z-129" value="" style="endArrow=none;html=1;rounded=0;exitX=0;exitY=0;exitDx=0;exitDy=0;entryX=0;entryY=0;entryDx=0;entryDy=0;" parent="1" source="zfnJmAJN-atiTWMpEj3Z-117" target="zfnJmAJN-atiTWMpEj3Z-80" edge="1">
          <mxGeometry relative="1" as="geometry">
            <mxPoint x="620" y="-560" as="sourcePoint" />
            <mxPoint x="780" y="-560" as="targetPoint" />
          </mxGeometry>
        </mxCell>
        <mxCell id="zfnJmAJN-atiTWMpEj3Z-130" value="Ship_type" style="ellipse;whiteSpace=wrap;html=1;align=center;" parent="1" vertex="1">
          <mxGeometry x="462.79" y="-680" width="80" height="40" as="geometry" />
        </mxCell>
        <mxCell id="zfnJmAJN-atiTWMpEj3Z-131" value="Bus_type" style="ellipse;whiteSpace=wrap;html=1;align=center;" parent="1" vertex="1">
          <mxGeometry x="1040" y="-670" width="80" height="40" as="geometry" />
        </mxCell>
        <mxCell id="zfnJmAJN-atiTWMpEj3Z-132" value="" style="endArrow=none;html=1;rounded=0;exitX=0.5;exitY=1;exitDx=0;exitDy=0;entryX=0.5;entryY=0;entryDx=0;entryDy=0;" parent="1" source="zfnJmAJN-atiTWMpEj3Z-119" target="zfnJmAJN-atiTWMpEj3Z-124" edge="1">
          <mxGeometry relative="1" as="geometry">
            <mxPoint x="620" y="-560" as="sourcePoint" />
            <mxPoint x="780" y="-560" as="targetPoint" />
          </mxGeometry>
        </mxCell>
        <mxCell id="zfnJmAJN-atiTWMpEj3Z-133" value="" style="endArrow=none;html=1;rounded=0;exitX=0.5;exitY=1;exitDx=0;exitDy=0;entryX=0.25;entryY=0;entryDx=0;entryDy=0;" parent="1" source="zfnJmAJN-atiTWMpEj3Z-130" target="zfnJmAJN-atiTWMpEj3Z-122" edge="1">
          <mxGeometry relative="1" as="geometry">
            <mxPoint x="620" y="-560" as="sourcePoint" />
            <mxPoint x="780" y="-560" as="targetPoint" />
          </mxGeometry>
        </mxCell>
        <mxCell id="zfnJmAJN-atiTWMpEj3Z-134" value="" style="endArrow=none;html=1;rounded=0;entryX=0;entryY=0.5;entryDx=0;entryDy=0;exitX=1;exitY=0;exitDx=0;exitDy=0;" parent="1" source="zfnJmAJN-atiTWMpEj3Z-123" target="zfnJmAJN-atiTWMpEj3Z-131" edge="1">
          <mxGeometry relative="1" as="geometry">
            <mxPoint x="620" y="-560" as="sourcePoint" />
            <mxPoint x="780" y="-560" as="targetPoint" />
          </mxGeometry>
        </mxCell>
        <mxCell id="zfnJmAJN-atiTWMpEj3Z-135" value="Vehicle_carrying_capacity" style="ellipse;whiteSpace=wrap;html=1;align=center;" parent="1" vertex="1">
          <mxGeometry x="460" y="-740" width="150" height="40" as="geometry" />
        </mxCell>
        <mxCell id="zfnJmAJN-atiTWMpEj3Z-136" value="" style="endArrow=none;html=1;rounded=0;exitX=0.75;exitY=0;exitDx=0;exitDy=0;entryX=0.5;entryY=1;entryDx=0;entryDy=0;" parent="1" source="zfnJmAJN-atiTWMpEj3Z-122" target="zfnJmAJN-atiTWMpEj3Z-135" edge="1">
          <mxGeometry relative="1" as="geometry">
            <mxPoint x="700" y="-670" as="sourcePoint" />
            <mxPoint x="860" y="-670" as="targetPoint" />
          </mxGeometry>
        </mxCell>
        <mxCell id="zfnJmAJN-atiTWMpEj3Z-137" value="Available_vehicle_carrying_capacity" style="ellipse;whiteSpace=wrap;html=1;align=center;" parent="1" vertex="1">
          <mxGeometry x="330" y="-120" width="220" height="40" as="geometry" />
        </mxCell>
        <mxCell id="zfnJmAJN-atiTWMpEj3Z-138" value="" style="endArrow=none;html=1;rounded=0;exitX=1;exitY=0.5;exitDx=0;exitDy=0;entryX=0;entryY=0.5;entryDx=0;entryDy=0;" parent="1" source="zfnJmAJN-atiTWMpEj3Z-137" target="zfnJmAJN-atiTWMpEj3Z-90" edge="1">
          <mxGeometry relative="1" as="geometry">
            <mxPoint x="630" y="-170" as="sourcePoint" />
            <mxPoint x="790" y="-170" as="targetPoint" />
          </mxGeometry>
        </mxCell>
        <mxCell id="zfnJmAJN-atiTWMpEj3Z-139" value="" style="endArrow=none;html=1;rounded=0;entryX=0;entryY=0.5;entryDx=0;entryDy=0;exitX=1;exitY=0.5;exitDx=0;exitDy=0;" parent="1" source="zfnJmAJN-atiTWMpEj3Z-55" target="zfnJmAJN-atiTWMpEj3Z-70" edge="1">
          <mxGeometry relative="1" as="geometry">
            <mxPoint x="460" y="79.58000000000001" as="sourcePoint" />
            <mxPoint x="620" y="79.58000000000001" as="targetPoint" />
          </mxGeometry>
        </mxCell>
        <mxCell id="zfnJmAJN-atiTWMpEj3Z-140" value="1" style="resizable=0;html=1;whiteSpace=wrap;align=right;verticalAlign=bottom;" parent="zfnJmAJN-atiTWMpEj3Z-139" connectable="0" vertex="1">
          <mxGeometry x="1" relative="1" as="geometry" />
        </mxCell>
        <mxCell id="zfnJmAJN-atiTWMpEj3Z-146" value="" style="endArrow=none;html=1;rounded=0;entryX=0.5;entryY=0;entryDx=0;entryDy=0;exitX=0.5;exitY=1;exitDx=0;exitDy=0;" parent="1" source="zfnJmAJN-atiTWMpEj3Z-18" target="zfnJmAJN-atiTWMpEj3Z-22" edge="1">
          <mxGeometry relative="1" as="geometry">
            <mxPoint x="-80" y="-50" as="sourcePoint" />
            <mxPoint x="-140" y="19.999999999999993" as="targetPoint" />
          </mxGeometry>
        </mxCell>
        <mxCell id="zfnJmAJN-atiTWMpEj3Z-147" value="N" style="resizable=0;html=1;whiteSpace=wrap;align=right;verticalAlign=bottom;" parent="zfnJmAJN-atiTWMpEj3Z-146" connectable="0" vertex="1">
          <mxGeometry x="1" relative="1" as="geometry">
            <mxPoint x="-10" y="-1" as="offset" />
          </mxGeometry>
        </mxCell>
        <mxCell id="G_Bgzye_VjeE1JJEJIjK-1" value="" style="shape=link;html=1;rounded=0;entryX=1;entryY=0.5;entryDx=0;entryDy=0;exitX=0;exitY=0.5;exitDx=0;exitDy=0;" parent="1" source="zfnJmAJN-atiTWMpEj3Z-55" target="zfnJmAJN-atiTWMpEj3Z-22" edge="1">
          <mxGeometry relative="1" as="geometry">
            <mxPoint x="140" y="90" as="sourcePoint" />
            <mxPoint x="240" y="-20" as="targetPoint" />
          </mxGeometry>
        </mxCell>
        <mxCell id="G_Bgzye_VjeE1JJEJIjK-2" value="1" style="resizable=0;html=1;whiteSpace=wrap;align=right;verticalAlign=bottom;" parent="G_Bgzye_VjeE1JJEJIjK-1" connectable="0" vertex="1">
          <mxGeometry x="1" relative="1" as="geometry">
            <mxPoint y="-10" as="offset" />
          </mxGeometry>
        </mxCell>
        <mxCell id="G_Bgzye_VjeE1JJEJIjK-3" value="" style="shape=link;html=1;rounded=0;entryX=0.5;entryY=1;entryDx=0;entryDy=0;exitX=0.5;exitY=0;exitDx=0;exitDy=0;" parent="1" source="XRYZQuRfgK1587XSu856-13" target="zfnJmAJN-atiTWMpEj3Z-22" edge="1">
          <mxGeometry relative="1" as="geometry">
            <mxPoint x="-80" y="170" as="sourcePoint" />
            <mxPoint x="155" y="22.97" as="targetPoint" />
          </mxGeometry>
        </mxCell>
        <mxCell id="G_Bgzye_VjeE1JJEJIjK-4" value="1" style="resizable=0;html=1;whiteSpace=wrap;align=right;verticalAlign=bottom;" parent="G_Bgzye_VjeE1JJEJIjK-3" connectable="0" vertex="1">
          <mxGeometry x="1" relative="1" as="geometry">
            <mxPoint x="-10" y="21" as="offset" />
          </mxGeometry>
        </mxCell>
        <mxCell id="G_Bgzye_VjeE1JJEJIjK-5" value="" style="shape=partialRectangle;whiteSpace=wrap;html=1;bottom=1;right=1;left=1;top=0;fillColor=none;routingCenterX=-0.5;" parent="1" vertex="1">
          <mxGeometry x="670" y="-450" width="40" height="20" as="geometry" />
        </mxCell>
        <mxCell id="XRYZQuRfgK1587XSu856-1" value="TRAIN" style="whiteSpace=wrap;html=1;align=center;" parent="1" vertex="1">
          <mxGeometry x="760" y="-600" width="80" height="40" as="geometry" />
        </mxCell>
        <mxCell id="XRYZQuRfgK1587XSu856-2" value="" style="endArrow=none;html=1;rounded=0;exitX=0.5;exitY=1;exitDx=0;exitDy=0;entryX=1;entryY=0;entryDx=0;entryDy=0;" parent="1" source="XRYZQuRfgK1587XSu856-1" target="zfnJmAJN-atiTWMpEj3Z-120" edge="1">
          <mxGeometry relative="1" as="geometry">
            <mxPoint x="830" y="-490" as="sourcePoint" />
            <mxPoint x="990" y="-490" as="targetPoint" />
          </mxGeometry>
        </mxCell>
        <mxCell id="XRYZQuRfgK1587XSu856-3" value="Bed_capacity" style="ellipse;whiteSpace=wrap;html=1;align=center;" parent="1" vertex="1">
          <mxGeometry x="820" y="-690" width="100" height="40" as="geometry" />
        </mxCell>
        <mxCell id="XRYZQuRfgK1587XSu856-4" value="Train_type" style="ellipse;whiteSpace=wrap;html=1;align=center;" parent="1" vertex="1">
          <mxGeometry x="690" y="-690" width="100" height="40" as="geometry" />
        </mxCell>
        <mxCell id="XRYZQuRfgK1587XSu856-5" value="" style="endArrow=none;html=1;rounded=0;exitX=0.25;exitY=0;exitDx=0;exitDy=0;entryX=0.5;entryY=1;entryDx=0;entryDy=0;" parent="1" source="XRYZQuRfgK1587XSu856-1" target="XRYZQuRfgK1587XSu856-4" edge="1">
          <mxGeometry relative="1" as="geometry">
            <mxPoint x="830" y="-490" as="sourcePoint" />
            <mxPoint x="990" y="-490" as="targetPoint" />
          </mxGeometry>
        </mxCell>
        <mxCell id="XRYZQuRfgK1587XSu856-6" value="" style="endArrow=none;html=1;rounded=0;exitX=0.5;exitY=1;exitDx=0;exitDy=0;entryX=0.75;entryY=0;entryDx=0;entryDy=0;" parent="1" source="XRYZQuRfgK1587XSu856-3" target="XRYZQuRfgK1587XSu856-1" edge="1">
          <mxGeometry relative="1" as="geometry">
            <mxPoint x="830" y="-590" as="sourcePoint" />
            <mxPoint x="990" y="-590" as="targetPoint" />
          </mxGeometry>
        </mxCell>
        <mxCell id="XRYZQuRfgK1587XSu856-7" value="Available_beds" style="ellipse;whiteSpace=wrap;html=1;align=center;" parent="1" vertex="1">
          <mxGeometry x="410" y="-180" width="100" height="40" as="geometry" />
        </mxCell>
        <mxCell id="XRYZQuRfgK1587XSu856-8" value="" style="endArrow=none;html=1;rounded=0;entryX=0;entryY=0;entryDx=0;entryDy=0;exitX=1;exitY=1;exitDx=0;exitDy=0;" parent="1" source="XRYZQuRfgK1587XSu856-7" target="zfnJmAJN-atiTWMpEj3Z-90" edge="1">
          <mxGeometry relative="1" as="geometry">
            <mxPoint x="830" y="-190" as="sourcePoint" />
            <mxPoint x="990" y="-190" as="targetPoint" />
          </mxGeometry>
        </mxCell>
        <mxCell id="XRYZQuRfgK1587XSu856-9" value="&lt;span style=&quot;border-bottom: 1px dotted&quot;&gt;Seat_type&lt;/span&gt;" style="ellipse;whiteSpace=wrap;html=1;align=center;" parent="1" vertex="1">
          <mxGeometry x="790" y="270" width="100" height="40" as="geometry" />
        </mxCell>
        <mxCell id="XRYZQuRfgK1587XSu856-10" value="" style="endArrow=none;html=1;rounded=0;exitX=1;exitY=1;exitDx=0;exitDy=0;entryX=0;entryY=0;entryDx=0;entryDy=0;" parent="1" source="zfnJmAJN-atiTWMpEj3Z-69" target="XRYZQuRfgK1587XSu856-9" edge="1">
          <mxGeometry relative="1" as="geometry">
            <mxPoint x="830" y="110" as="sourcePoint" />
            <mxPoint x="990" y="110" as="targetPoint" />
          </mxGeometry>
        </mxCell>
        <mxCell id="XRYZQuRfgK1587XSu856-11" value="u" style="ellipse;whiteSpace=wrap;html=1;aspect=fixed;" parent="1" vertex="1">
          <mxGeometry x="-95" y="330" width="30" height="30" as="geometry" />
        </mxCell>
        <mxCell id="XRYZQuRfgK1587XSu856-13" value="RVEHICLE" style="whiteSpace=wrap;html=1;align=center;" parent="1" vertex="1">
          <mxGeometry x="-130" y="240" width="100" height="40" as="geometry" />
        </mxCell>
        <mxCell id="XRYZQuRfgK1587XSu856-14" value="MICROMOBILITY" style="whiteSpace=wrap;html=1;align=center;fontSize=11;" parent="1" vertex="1">
          <mxGeometry x="-280" y="440" width="120" height="40" as="geometry" />
        </mxCell>
        <mxCell id="XRYZQuRfgK1587XSu856-17" value="Micromobility_type" style="ellipse;whiteSpace=wrap;html=1;align=center;" parent="1" vertex="1">
          <mxGeometry x="-280" y="520" width="120" height="40" as="geometry" />
        </mxCell>
        <mxCell id="XRYZQuRfgK1587XSu856-18" value="" style="endArrow=none;html=1;rounded=0;entryX=0.5;entryY=0;entryDx=0;entryDy=0;exitX=0.5;exitY=1;exitDx=0;exitDy=0;" parent="1" source="XRYZQuRfgK1587XSu856-14" target="XRYZQuRfgK1587XSu856-17" edge="1">
          <mxGeometry relative="1" as="geometry">
            <mxPoint x="-375" y="330" as="sourcePoint" />
            <mxPoint x="-215" y="330" as="targetPoint" />
          </mxGeometry>
        </mxCell>
        <mxCell id="XRYZQuRfgK1587XSu856-22" value="" style="endArrow=none;html=1;rounded=0;entryX=0.5;entryY=0;entryDx=0;entryDy=0;exitX=0;exitY=1;exitDx=0;exitDy=0;" parent="1" source="XRYZQuRfgK1587XSu856-11" target="XRYZQuRfgK1587XSu856-14" edge="1">
          <mxGeometry relative="1" as="geometry">
            <mxPoint x="-110" y="370" as="sourcePoint" />
            <mxPoint x="200" y="220" as="targetPoint" />
          </mxGeometry>
        </mxCell>
        <mxCell id="XRYZQuRfgK1587XSu856-23" value="" style="endArrow=none;html=1;rounded=0;exitX=1;exitY=1;exitDx=0;exitDy=0;entryX=0.5;entryY=0;entryDx=0;entryDy=0;" parent="1" source="XRYZQuRfgK1587XSu856-11" target="zfnJmAJN-atiTWMpEj3Z-21" edge="1">
          <mxGeometry relative="1" as="geometry">
            <mxPoint x="40" y="220" as="sourcePoint" />
            <mxPoint x="200" y="220" as="targetPoint" />
          </mxGeometry>
        </mxCell>
        <mxCell id="XRYZQuRfgK1587XSu856-25" value="" style="endArrow=none;html=1;rounded=0;exitX=0.5;exitY=1;exitDx=0;exitDy=0;entryX=0.5;entryY=0;entryDx=0;entryDy=0;" parent="1" source="XRYZQuRfgK1587XSu856-27" target="XRYZQuRfgK1587XSu856-11" edge="1">
          <mxGeometry relative="1" as="geometry">
            <mxPoint x="-110" y="320" as="sourcePoint" />
            <mxPoint x="50" y="320" as="targetPoint" />
          </mxGeometry>
        </mxCell>
        <mxCell id="XRYZQuRfgK1587XSu856-30" value="" style="endArrow=none;html=1;rounded=0;exitX=0.5;exitY=1;exitDx=0;exitDy=0;entryX=0.5;entryY=0;entryDx=0;entryDy=0;" parent="1" source="XRYZQuRfgK1587XSu856-13" target="XRYZQuRfgK1587XSu856-27" edge="1">
          <mxGeometry relative="1" as="geometry">
            <mxPoint x="-80" y="280" as="sourcePoint" />
            <mxPoint x="-80" y="330" as="targetPoint" />
          </mxGeometry>
        </mxCell>
        <mxCell id="XRYZQuRfgK1587XSu856-27" value="" style="shape=partialRectangle;whiteSpace=wrap;html=1;bottom=1;right=1;left=1;top=0;fillColor=none;routingCenterX=-0.5;direction=west;" parent="1" vertex="1">
          <mxGeometry x="-100" y="300" width="40" height="20" as="geometry" />
        </mxCell>
        <mxCell id="pekdsJiBnnZNn3KX4gSM-1" value="Vehicle_id" style="ellipse;whiteSpace=wrap;html=1;align=center;fontStyle=4;" vertex="1" parent="1">
          <mxGeometry x="270" y="-640" width="100" height="40" as="geometry" />
        </mxCell>
        <mxCell id="pekdsJiBnnZNn3KX4gSM-2" value="Vehicle_id" style="ellipse;whiteSpace=wrap;html=1;align=center;fontStyle=4;" vertex="1" parent="1">
          <mxGeometry x="580" y="-690" width="100" height="40" as="geometry" />
        </mxCell>
        <mxCell id="pekdsJiBnnZNn3KX4gSM-3" value="Vehicle_id" style="ellipse;whiteSpace=wrap;html=1;align=center;fontStyle=4;" vertex="1" parent="1">
          <mxGeometry x="930" y="-690" width="100" height="40" as="geometry" />
        </mxCell>
        <mxCell id="pekdsJiBnnZNn3KX4gSM-4" value="Vehicle_id" style="ellipse;whiteSpace=wrap;html=1;align=center;fontStyle=4;" vertex="1" parent="1">
          <mxGeometry x="750" y="-740" width="100" height="40" as="geometry" />
        </mxCell>
        <mxCell id="pekdsJiBnnZNn3KX4gSM-5" value="" style="endArrow=none;html=1;rounded=0;entryX=0;entryY=0;entryDx=0;entryDy=0;exitX=1;exitY=0.5;exitDx=0;exitDy=0;" edge="1" parent="1" source="pekdsJiBnnZNn3KX4gSM-1" target="zfnJmAJN-atiTWMpEj3Z-124">
          <mxGeometry relative="1" as="geometry">
            <mxPoint x="300" y="-520" as="sourcePoint" />
            <mxPoint x="460" y="-520" as="targetPoint" />
          </mxGeometry>
        </mxCell>
        <mxCell id="pekdsJiBnnZNn3KX4gSM-6" value="" style="endArrow=none;html=1;rounded=0;entryX=1;entryY=0;entryDx=0;entryDy=0;exitX=0.5;exitY=1;exitDx=0;exitDy=0;" edge="1" parent="1" source="pekdsJiBnnZNn3KX4gSM-2" target="zfnJmAJN-atiTWMpEj3Z-122">
          <mxGeometry relative="1" as="geometry">
            <mxPoint x="680" y="-770" as="sourcePoint" />
            <mxPoint x="840" y="-770" as="targetPoint" />
          </mxGeometry>
        </mxCell>
        <mxCell id="pekdsJiBnnZNn3KX4gSM-8" value="" style="endArrow=none;html=1;rounded=0;exitX=0.5;exitY=0;exitDx=0;exitDy=0;entryX=0.5;entryY=1;entryDx=0;entryDy=0;" edge="1" parent="1" source="XRYZQuRfgK1587XSu856-1" target="pekdsJiBnnZNn3KX4gSM-4">
          <mxGeometry relative="1" as="geometry">
            <mxPoint x="800" y="-640" as="sourcePoint" />
            <mxPoint x="960" y="-640" as="targetPoint" />
          </mxGeometry>
        </mxCell>
        <mxCell id="pekdsJiBnnZNn3KX4gSM-9" value="" style="endArrow=none;html=1;rounded=0;exitX=0.5;exitY=0;exitDx=0;exitDy=0;entryX=0.5;entryY=1;entryDx=0;entryDy=0;" edge="1" parent="1" source="zfnJmAJN-atiTWMpEj3Z-123" target="pekdsJiBnnZNn3KX4gSM-3">
          <mxGeometry relative="1" as="geometry">
            <mxPoint x="940" y="-640" as="sourcePoint" />
            <mxPoint x="1100" y="-640" as="targetPoint" />
          </mxGeometry>
        </mxCell>
        <mxCell id="pekdsJiBnnZNn3KX4gSM-10" value="RVehicle_id" style="ellipse;whiteSpace=wrap;html=1;align=center;fontStyle=4;" vertex="1" parent="1">
          <mxGeometry x="-400" y="500" width="100" height="40" as="geometry" />
        </mxCell>
        <mxCell id="pekdsJiBnnZNn3KX4gSM-11" value="RVehicle_id" style="ellipse;whiteSpace=wrap;html=1;align=center;fontStyle=4;" vertex="1" parent="1">
          <mxGeometry x="140" y="370" width="100" height="40" as="geometry" />
        </mxCell>
        <mxCell id="pekdsJiBnnZNn3KX4gSM-12" value="" style="endArrow=none;html=1;rounded=0;exitX=1;exitY=0;exitDx=0;exitDy=0;entryX=0;entryY=1;entryDx=0;entryDy=0;" edge="1" parent="1" source="pekdsJiBnnZNn3KX4gSM-10" target="XRYZQuRfgK1587XSu856-14">
          <mxGeometry relative="1" as="geometry">
            <mxPoint x="-380" y="620" as="sourcePoint" />
            <mxPoint x="-220" y="620" as="targetPoint" />
          </mxGeometry>
        </mxCell>
        <mxCell id="pekdsJiBnnZNn3KX4gSM-13" value="" style="endArrow=none;html=1;rounded=0;exitX=1;exitY=0;exitDx=0;exitDy=0;entryX=0;entryY=1;entryDx=0;entryDy=0;" edge="1" parent="1" source="zfnJmAJN-atiTWMpEj3Z-21" target="pekdsJiBnnZNn3KX4gSM-11">
          <mxGeometry relative="1" as="geometry">
            <mxPoint x="200" y="630" as="sourcePoint" />
            <mxPoint x="360" y="630" as="targetPoint" />
          </mxGeometry>
        </mxCell>
      </root>
    </mxGraphModel>
  </diagram>
</mxfile>
